<?xml version="1.0" encoding="utf-8"?>
<!-- Generator: Adobe Illustrator 28.1.0, SVG Export Plug-In . SVG Version: 6.00 Build 0)  -->
<svg version="1.1" id="Layer_1" xmlns="http://www.w3.org/2000/svg" xmlns:xlink="http://www.w3.org/1999/xlink" x="0px" y="0px"
	 viewBox="0 0 839.2 163.5" style="enable-background:new 0 0 839.2 163.5;" xml:space="preserve">
<style type="text/css">
	.st0{fill:#FFFFFF;}
	.st1{fill:#A7A7A6;}
	.st2{fill-rule:evenodd;clip-rule:evenodd;fill:#FFFFFF;}
</style>
<g>
	<g>
		<rect x="397.3" y="80.3" class="st0" width="3.3" height="83.1"/>
	</g>
	<g>
		<path class="st0" d="M827.5,158.7h1.9v4.7h0.8v-4.7h1.9V158h-4.5v0.7H827.5z"/>
		<path class="st0" d="M837.8,158l-1.5,4.5h-0.2l-1.5-4.5h-1.5v5.5h0.8V159h0.2l1.5,4.5h1.1l1.5-4.5h0.2v4.5h0.8V158H837.8z"/>
		<path class="st0" d="M556.2,80.4h37.2c4.8,0,8.4,1.1,10.8,3.3c2.5,2.2,3.7,5.2,3.7,9.2v24.6c0,2.3-0.4,4.2-1.2,5.7s-2,2.7-3.7,3.5
			s-3.9,1.2-6.5,1.2h-0.4v3.2c1.3,0.1,2.4,0.4,3.1,0.8c0.7,0.4,1.4,1,1.9,1.8c0.6,0.8,1,1.9,1.5,3.5l8,26.4h-20.9l-8.1-31.8H576
			v31.7h-19.8L556.2,80.4L556.2,80.4z M587,116.1c0.4,0,0.7-0.1,0.9-0.3s0.3-0.5,0.3-0.9V98.3c0-0.4-0.1-0.8-0.3-0.9
			c-0.1-0.2-0.4-0.3-0.9-0.3h-11V116L587,116.1L587,116.1z"/>
		<path class="st0" d="M677.3,163.6c-4.4,0-7.9-1.2-10.3-3.6c-2.4-2.4-3.6-5.8-3.6-10V94c0-4.2,1.2-7.6,3.6-10
			c2.4-2.4,5.9-3.6,10.3-3.6h24c4.5,0,8,1.2,10.4,3.6c2.4,2.4,3.6,5.7,3.6,10v56c0,4.2-1.2,7.5-3.6,10c-2.4,2.4-5.9,3.6-10.4,3.6
			H677.3z M694.4,146.3c0.4,0,0.7-0.1,0.9-0.3s0.3-0.5,0.3-0.9V98.7c0-0.4-0.1-0.7-0.3-0.9s-0.5-0.3-0.9-0.3h-10
			c-0.4,0-0.7,0.1-0.9,0.3s-0.3,0.5-0.3,0.9v46.4c0,0.4,0.1,0.7,0.3,0.9s0.5,0.3,0.9,0.3L694.4,146.3L694.4,146.3z"/>
		<path class="st0" d="M720,80.4h27.7l7.8,52.7h2.7V80.4h17.4v83.1h-27.7l-7.8-52.7h-2.7v52.7H720V80.4z"/>
		<path class="st0" d="M780.3,80.4h43.6v17.2h-24v15.7H823v17.2h-23.1v15.9h24v17.2h-43.6V80.4z"/>
		<path class="st0" d="M482.2,80.4l-7.2,52.7h-1.2l-4.7-52.7h-20.3l-4.7,52.7h-1.2l-7.2-52.7h-19.8l13.9,83.1h23.8l4.4-52.7h1.6
			l4.4,52.7h23.8l14-83.1H482.2L482.2,80.4z"/>
		<path class="st0" d="M634.5,145.9l24.7-50.5v-15h-47V98h24.2L611,149.9l4.1,13.6h44.2v-17.6H634.5L634.5,145.9z"/>
		<path class="st0" d="M531.3,163.5h20.2v-14.8l-11.6-68.3h-32.7l-11.5,68.3v14.8h19.4l1.5-14.8h13.2L531.3,163.5L531.3,163.5z
			 M518.3,132.1l3.5-34.1h2.6l3.6,34.1L518.3,132.1L518.3,132.1z"/>
	</g>
	<g>
		<path class="st1" d="M285.8,79.3h23v84.1h-26.7V85.8L285.8,79.3z M349.9,79.3v84h23.2l3.6-6.4V79.3H349.9z M316,163.4h26.7V79.3
			H316V163.4z"/>
		<polygon class="st2" points="121.6,144.3 148.5,118.2 148.5,79.3 117.8,79.3 74.2,123.5 30.6,79.3 0,79.3 0,163.4 26.8,163.4 
			26.8,118.1 31.1,118.1 74.2,159.9 117.3,118 121.6,118 		"/>
		<polygon class="st2" points="243.2,79.4 243.2,124.8 238.9,124.8 195.8,82.8 121.6,154.9 121.6,163.4 152.3,163.4 195.8,119.2 
			239.4,163.5 270.1,163.5 270.1,79.4 		"/>
	</g>
	<g>
		<path class="st0" d="M599.8,51.9c-3.7,0-6.8,3-6.8,6.7c0,3.7,3,6.7,6.8,6.7c3.7,0,6.7-3,6.7-6.7C606.5,55,603.5,51.9,599.8,51.9z
			 M599.8,64.4c-3.1,0-5.7-2.6-5.7-5.7c0-3.2,2.6-5.7,5.7-5.7c3.2,0,5.7,2.6,5.7,5.7C605.5,61.8,602.9,64.4,599.8,64.4z M601.7,59.2
			c-0.1-0.1-0.2-0.2-0.3-0.2v-0.2h0.4c0.3,0,0.6-0.1,0.8-0.3c0.2-0.2,0.3-0.4,0.3-0.8v-1.2c0-0.4-0.1-0.7-0.3-0.9
			c-0.2-0.2-0.5-0.3-0.9-0.3h-4.8v6.4h1.2v-2.6h2.4l1.2,2.6h1.4l-1-2.1C601.9,59.5,601.8,59.3,601.7,59.2L601.7,59.2z M598,58.3
			v-1.9h3.5c0.1,0,0.1,0,0.1,0v0.1v1.6c0,0.1,0,0.1,0,0.1h-0.1H598V58.3z"/>
		<path class="st2" d="M349.9,53.1h-12.6V0h-18v65.4H350V53.1H349.9z M383.6,53.1H371V0h-18v65.4h30.6V53.1z M234.2,64.7
			c0.5,0.5,1.2,0.7,1.9,0.7h24.3c0.7,0,1.4-0.2,1.9-0.7c1.7-1.8,4.4-4.9,6.7-7.8c0.3-0.4,0.5-1.1,0.5-1.6V37.2H253v17.4h-9.5V10.9
			h9.5v17.4h16.5V10.2c0-0.6-0.2-1.2-0.5-1.6c-2.3-2.9-5-6-6.7-7.8c-0.5-0.5-1.2-0.7-1.9-0.7h-24.3c-0.7,0-1.4,0.2-1.9,0.7
			c-1.7,1.8-4.4,4.9-6.7,7.8c-0.4,0.4-0.5,1.1-0.5,1.6v45.1c0,0.6,0.2,1.2,0.5,1.6C229.8,59.8,232.5,62.9,234.2,64.7z M289.6,46.2
			h9.5v19.3h16.5V10.2c0-0.6-0.2-1.2-0.5-1.6c-2.3-2.9-5-6-6.7-7.8c-0.5-0.5-1.2-0.7-1.9-0.7h-24.3c-0.7,0-1.4,0.2-1.9,0.7
			c-1.7,1.8-4.4,4.9-6.7,7.8c-0.4,0.4-0.5,1.1-0.5,1.6v55.2h16.5V46.2L289.6,46.2z M289.6,10.9h9.5v24.4h-9.5V10.9z M478.9,64.7
			c0.5,0.5,1.2,0.7,1.9,0.7h24.3c0.7,0,1.4-0.2,1.9-0.7c1.7-1.8,4.4-4.9,6.7-7.8c0.3-0.4,0.5-1.1,0.5-1.6V0h-16.5v54.5h-9.5V0h-16.5
			v55.3c0,0.6,0.2,1.2,0.5,1.6C474.5,59.8,477.2,62.9,478.9,64.7L478.9,64.7z M460.8,64.7c1.7-1.8,4.4-4.9,6.7-7.8
			c0.4-0.4,0.5-1.1,0.5-1.6V10.2c0-0.6-0.2-1.2-0.5-1.6c-2.3-2.9-5-6-6.7-7.8c-0.5-0.5-1.2-0.7-1.9-0.7h-33.3v65.4H459
			C459.6,65.5,460.3,65.2,460.8,64.7L460.8,64.7z M451.5,54.6h-9.4V10.9h9.4V54.6L451.5,54.6z M567.8,43.1v22.3h17.7V43.1l10.8-13
			c0.4-0.4,0.5-1,0.5-1.5V0h-15.4v24.3l-4,4.7h-1.7l-4-4.7V0h-15.4v28.5c0,0.6,0.2,1.1,0.5,1.5L567.8,43.1L567.8,43.1z M382,41.1
			c0.2,0.2,0.5,0.3,0.8,0.3h12.3c0.3,0,0.6-0.1,0.8-0.3c0.8-0.8,1.4-1.6,2.4-2.9c0.2-0.2,0.2-0.5,0.2-0.7V17c0-0.3-0.1-0.5-0.2-0.7
			c-1-1.3-1.6-2.1-2.4-2.9c-0.2-0.2-0.5-0.3-0.8-0.3h-12.3c-0.3,0-0.6,0.1-0.8,0.3c-0.8,0.8-1.4,1.6-2.4,2.9
			c-0.2,0.2-0.2,0.5-0.2,0.7v20.4c0,0.3,0.1,0.5,0.2,0.7C380.7,39.5,381.3,40.3,382,41.1L382,41.1z M386.8,19.2h4.5v16.1h-4.5V19.2
			L386.8,19.2z M409.1,32.1h7.9v-6.6h-7.9v-5.8h8.9v-6.6h-16.3v28.3h7.4V32.1L409.1,32.1z M527.2,65.5h16.5v-52h9.6V0h-35.6v13.4
			h9.6L527.2,65.5L527.2,65.5z"/>
	</g>
</g>
</svg>
